<svg xmlns="http://www.w3.org/2000/svg" viewBox="0 0 24 24" fill="currentColor"><path d="M12 0C5.381 0 0 5.382 0 12c0 6.615 5.381 12 12 12 6.615 0 12-5.385 12-12C24 5.382 18.615 0 12 0zm5.04 17.536c-.196.293-.554.39-.848.195-2.325-1.42-5.254-1.742-8.7-.954a.605.605 0 01-.714-.452.604.604 0 01.452-.714c3.77-.863 7.005-.491 9.615 1.077.293.196.39.554.195.848zm1.347-2.844c-.247.37-.695.487-1.064.24-2.662-1.636-6.718-2.11-9.865-1.155a.8.8 0 01-.997-.52.8.8 0 01.52-.997c3.597-1.09 8.068-.562 11.146 1.318.37.247.487.695.26 1.114zm.116-2.963C14.98 9.711 8.7 9.468 5.068 10.558a.958.958 0 01-1.194-.632.96.96 0 01.632-1.194c4.168-1.252 11.092-.96 15.47 1.373a.96.96 0 01.35 1.312.96.96 0 01-1.312.35l-.011-.038z"/></svg>