<?xml version="1.0" encoding="utf-8"?>
<svg width="800px" height="800px" viewBox="0 0 76 76" xmlns="http://www.w3.org/2000/svg" version="1.1" baseProfile="full" enable-background="new 0 0 76.00 76.00">
  <rect x="2.862" y="2.413" width="70.276" height="71.174" rx="12" style="stroke-width: 0.095; fill: rgb(236, 223, 21);"/>
  <path fill-opacity="1" stroke-linejoin="round" d="M 37.75 19.485 L 38.25 19.485 C 38.25 19.485 57 19.485 57 39.485 C 57 48.485 55 51.485 54 52.485 C 54 52.485 51 54.485 52 51.735 C 52 49.421 53 44.485 53 44.485 C 53 44.485 54 44.485 54 39.485 C 54 33.485 50 22.985 39 22.985 L 37 22.985 C 26 22.985 22 33.485 22 39.485 C 22 44.485 23 44.485 23 44.485 C 23 44.485 24 49.421 24 51.735 C 25 54.485 22 52.485 22 52.485 C 21 51.485 19 48.485 19 39.485 C 19 19.485 37.75 19.485 37.75 19.485 Z M 26.553 39.651 C 28.194 39.42 29.711 40.563 29.942 42.204 L 31.473 53.097 C 31.703 54.738 30.56 56.255 28.919 56.485 C 27.279 56.716 25.262 55.573 25.031 53.932 L 23.5 43.039 C 23.269 41.398 24.913 39.881 26.553 39.651 Z M 49.447 39.651 C 51.087 39.881 52.731 41.398 52.5 43.039 L 50.969 53.932 C 50.739 55.573 48.722 56.716 47.081 56.485 C 45.44 56.255 44.297 54.738 44.528 53.097 L 46.058 42.204 C 46.289 40.563 47.806 39.42 49.447 39.651 Z" style="fill: rgb(255, 255, 255);"/>
  <path fill-opacity="1" stroke-linejoin="round" d="M 37.75 19.485 L 38.25 19.485 C 38.25 19.485 57 19.485 57 39.485 C 57 48.485 55 51.485 54 52.485 C 54 52.485 51 54.485 52 51.735 C 52 49.421 53 44.485 53 44.485 C 53 44.485 54 44.485 54 39.485 C 54 33.485 50 22.985 39 22.985 L 37 22.985 C 26 22.985 22 33.485 22 39.485 C 22 44.485 23 44.485 23 44.485 C 23 44.485 24 49.421 24 51.735 C 25 54.485 22 52.485 22 52.485 C 21 51.485 19 48.485 19 39.485 C 19 19.485 37.75 19.485 37.75 19.485 Z M 26.553 39.651 C 28.194 39.42 29.711 40.563 29.942 42.204 L 31.473 53.097 C 31.703 54.738 30.56 56.255 28.919 56.485 C 27.279 56.716 25.262 55.573 25.031 53.932 L 23.5 43.039 C 23.269 41.398 24.913 39.881 26.553 39.651 Z M 49.447 39.651 C 51.087 39.881 52.731 41.398 52.5 43.039 L 50.969 53.932 C 50.739 55.573 48.722 56.716 47.081 56.485 C 45.44 56.255 44.297 54.738 44.528 53.097 L 46.058 42.204 C 46.289 40.563 47.806 39.42 49.447 39.651 Z" style="fill: rgb(255, 255, 255); stroke-width: 2px; stroke: rgb(255, 255, 255); opacity: 0.2;"/>
</svg>