<?xml version="1.0" encoding="utf-8"?>
<svg xmlns="http://www.w3.org/2000/svg" viewBox="0 0 64 64" fill="none">
  <rect x="4" y="4" width="56" height="56" rx="12" fill="#FF6B35"/>
  <path d="M 32.069 31.131 C 30.53 31.131 29.568 29.464 30.337 28.131 C 31.107 26.797 33.032 26.797 33.801 28.131 C 33.977 28.435 34.069 28.78 34.069 29.131 C 34.069 30.235 33.174 31.131 32.069 31.131 Z M 32.069 29.131 Z" style="stroke-width: 1; stroke: rgb(255, 255, 255); fill: rgb(255, 255, 255);"/>
  <path d="M 43.128 49.181 L 21.01 49.181 C 18.698 49.176 16.824 47.302 16.819 44.99 L 16.819 18.873 C 16.824 16.56 18.697 14.686 21.01 14.681 L 43.128 14.681 C 45.441 14.686 47.315 16.56 47.319 18.873 L 47.319 44.99 C 47.314 47.302 45.441 49.176 43.128 49.181 Z M 21.01 17.181 C 20.077 17.182 19.321 17.939 19.319 18.873 L 19.319 44.99 C 19.321 45.923 20.077 46.679 21.01 46.681 L 43.128 46.681 C 44.062 46.679 44.818 45.923 44.819 44.99 L 44.819 18.873 C 44.818 17.939 44.062 17.182 43.128 17.181 L 21.01 17.181 Z" style="stroke-width: 1; stroke: rgb(255, 255, 255); fill: rgb(255, 255, 255);"/>
  <path d="M 32.029 37.876 C 25.294 37.876 21.084 30.584 24.452 24.751 C 27.82 18.917 36.239 18.917 39.607 24.751 C 40.375 26.081 40.779 27.59 40.779 29.126 C 40.774 33.956 36.86 37.871 32.029 37.876 Z M 32.029 22.876 C 27.218 22.876 24.211 28.084 26.617 32.251 C 29.022 36.417 35.036 36.417 37.442 32.251 C 37.991 31.3 38.279 30.223 38.279 29.126 C 38.276 25.675 35.48 22.879 32.029 22.876 Z" style="stroke-width: 1; stroke: rgb(255, 255, 255); fill: rgb(255, 255, 255);"/>
  <path d="M 22.769 21.881 C 23.732 21.842 24.291 20.776 23.777 19.962 C 23.557 19.615 23.18 19.397 22.769 19.381 C 21.807 19.419 21.247 20.485 21.762 21.299 C 21.982 21.647 22.358 21.864 22.769 21.881 Z" style="stroke-width: 1; stroke: rgb(255, 255, 255); fill: rgb(255, 255, 255);"/>
  <path d="M 41.369 21.881 C 42.332 21.842 42.891 20.776 42.377 19.962 C 42.157 19.615 41.78 19.397 41.369 19.381 C 40.407 19.419 39.847 20.485 40.362 21.299 C 40.582 21.647 40.958 21.864 41.369 21.881 Z" style="stroke-width: 1; stroke: rgb(255, 255, 255); fill: rgb(255, 255, 255);"/>
  <path d="M 22.769 44.101 C 23.732 44.062 24.291 42.996 23.777 42.182 C 23.557 41.835 23.18 41.617 22.769 41.601 C 21.807 41.639 21.247 42.705 21.762 43.519 C 21.982 43.867 22.358 44.084 22.769 44.101 Z" style="stroke-width: 1; stroke: rgb(255, 255, 255); fill: rgb(255, 255, 255);"/>
  <path d="M 41.369 44.101 C 42.332 44.062 42.891 42.996 42.377 42.182 C 42.157 41.835 41.78 41.617 41.369 41.601 C 40.407 41.639 39.847 42.705 40.362 43.519 C 40.582 43.867 40.958 44.084 41.369 44.101 Z" style="stroke-width: 1; stroke: rgb(255, 255, 255); fill: rgb(255, 255, 255);"/>
  <path d="M 25.029 38.741 C 24.066 38.739 23.466 37.695 23.949 36.862 C 24.002 36.771 24.066 36.687 24.139 36.613 L 28.639 32.053 C 29.315 31.367 30.479 31.671 30.735 32.599 C 30.853 33.029 30.733 33.491 30.419 33.809 L 25.919 38.369 C 25.685 38.607 25.364 38.741 25.029 38.741 Z" style="stroke-width: 1; stroke: rgb(255, 255, 255); fill: rgb(255, 255, 255);"/>
</svg>